<?xml version="1.0" encoding="utf-8"?>
<svg version="1.1" id="Layer_1" xmlns="http://www.w3.org/2000/svg" xmlns:xlink="http://www.w3.org/1999/xlink" x="0px" y="0px"
	 viewBox="0 0 512 512" style="enable-background:new 0 0 512 512;" xml:space="preserve">
<style type="text/css">
	.st0{fill:#67768A;}
</style>
<g>
	<g>
		<path class="st0" d="M256.1,49C172.4,49,96.9,98.9,64,175.8l-2.6,5.8l1-1.9c-43.3,106.9,8.2,228.7,115.1,272
			c25,10.1,51.7,15.3,78.6,15.3c115.4,0,209-93.5,209-208.9C465,142.6,371.5,49.1,256.1,49z M420,363.4l-10.7-10.7v-25
			c0-1.1-0.2-2.1-0.7-3.1l-27.2-54.3v-26.2c0-2.3-1.2-4.5-3.1-5.8l-20.9-13.9c-1.6-1.1-3.7-1.4-5.6-1l-25.6,6.4l-43-18.4l-5.9-41.4
			l16.4-16.4h35.2l11.8,17.8c1.1,1.6,2.8,2.7,4.7,3l41.8,7c1.1,0.2,2.3,0.1,3.3-0.3l38.5-12.8C461.3,230.1,457.9,304.7,420,363.4z
			 M391.2,117.7l-11.3,7.6l-31.6-6.3l-20.5-6.8c-1.3-0.4-2.6-0.5-3.9-0.2l-25.9,6.5l-11.4-3.8l8.4-16.8h23.6c1.1,0,2.1-0.2,3.1-0.7
			l24.1-12C362.5,93.7,377.8,104.7,391.2,117.7z M179.7,78.5l16.7,11.1c0.8,0.5,1.8,0.9,2.7,1.1l33.8,5.6l-3.3,9.9l-17.6,5.9
			c-1.6,0.5-2.9,1.6-3.8,3l-20,33.3l-32.1,19.3l-47.4,6.8c-3.4,0.5-6,3.4-6,6.9v20.9c0,1.8,0.7,3.6,2,4.9l11.9,11.9v12l-29-19.3
			l-10.5-31.5C97.2,134.5,133.9,98.2,179.7,78.5z M159.9,306.9l-31.5-6.3l-11.7-23.3v-16.4l26-26l9.6,19.2c1.2,2.4,3.6,3.9,6.2,3.9
			h44.8l18.9,31.4c1.3,2.1,3.5,3.4,6,3.4h19.4l-4.9,24.4l-26.4,26.4c-1.3,1.3-2,3.1-2,4.9V366l-25.1,18.8c-1.8,1.3-2.8,3.4-2.8,5.6
			v25.2l-8.7-2.9L165.5,382v-68.3C165.5,310.4,163.1,307.6,159.9,306.9z M139,414c-65.7-49.3-93.4-134.4-69.5-212.9l5.8,17.4
			c0.5,1.5,1.5,2.7,2.7,3.6l34.7,23.1l-7.9,7.9c-1.3,1.3-2,3.1-2,4.9v20.9c0,1.1,0.2,2.1,0.7,3.1l13.9,27.9c1,1.9,2.8,3.3,4.9,3.7
			l29.3,5.8v63.9c0,0.9,0.2,1.8,0.5,2.6l13.9,34.8c0.8,1.9,2.3,3.4,4.3,4l20.9,7c0.7,0.2,1.4,0.4,2.2,0.4c3.8,0,7-3.1,7-7v-31.3
			l25.1-18.8c1.8-1.3,2.8-3.4,2.8-5.6v-18l25.8-25.8c1-1,1.6-2.2,1.9-3.6l7-34.8c0.8-3.8-1.7-7.4-5.5-8.2c-0.4-0.1-0.9-0.1-1.4-0.1
			h-23.9l-18.9-31.4c-1.3-2.1-3.5-3.4-6-3.4h-44.5l-12-24c-1-2-2.9-3.4-5.1-3.8c-2.2-0.4-4.5,0.3-6,2l-9,9v-11c0-1.8-0.7-3.6-2-4.9
			l-11.9-11.9v-12l42.8-6.1c0.9-0.1,1.8-0.4,2.6-0.9l34.8-20.9c1-0.6,1.8-1.4,2.4-2.4l19.6-32.6l18.5-6.2c2.1-0.7,3.7-2.3,4.4-4.4
			l7-20.9c1.2-3.7-0.8-7.6-4.4-8.8c-0.3-0.1-0.7-0.2-1-0.3l-40.3-6.7l-7.1-4.7c43.8-14.3,91.3-12.5,134,5l-12.7,6.4h-26.2
			c-2.7,0-5.1,1.5-6.3,3.9l-13.9,27.9c-1.7,3.4-0.3,7.6,3.1,9.3c0.3,0.1,0.6,0.3,0.9,0.4l20.9,7c1.3,0.4,2.6,0.5,3.9,0.2l25.9-6.5
			l19,6.3c0.3,0.1,0.6,0.2,0.8,0.2l34.8,7c1.8,0.4,3.7,0,5.2-1l15.9-10.6c7.8,8.7,14.8,18.1,21,28l-34.3,11.4l-37.1-6.2l-12.3-18.4
			c-1.3-1.9-3.4-3.1-5.8-3.1h-41.8c-1.8,0-3.6,0.7-4.9,2L265,162.5c-1.6,1.6-2.3,3.7-2,5.9l7,48.8c0.4,2.4,1.9,4.5,4.2,5.4
			l48.8,20.9c1.4,0.6,3,0.7,4.4,0.4l24.9-6.2l15.2,10.2v24.1c0,1.1,0.2,2.1,0.7,3.1l27.2,54.3v26.2c0,1.8,0.7,3.6,2,4.9l14.6,14.6
			C347.3,461.2,225.1,478.6,139,414z"/>
	</g>
</g>
</svg>
