<?xml version="1.0" encoding="utf-8"?>
<svg version="1.1" id="Layer_1" xmlns="http://www.w3.org/2000/svg" xmlns:xlink="http://www.w3.org/1999/xlink" x="0px" y="0px"
	 width="512px" height="512px" viewBox="0 0 512 512" enable-background="new 0 0 512 512" xml:space="preserve">
<g>
	<path fill="#67768A" d="M471,92h-27V65c0-14.852-12.155-27-27-27H39c-14.852,0-27,12.148-27,27v324c0,14.845,12.148,27,27,27h27v27
		c0,14.845,12.148,27,27,27h378c14.845,0,27-12.155,27-27V119C498,104.148,485.845,92,471,92z M66,119v270H39.053
		c-0.013-0.014-0.04-0.026-0.053-0.053V65.039c0.013-0.013,0.026-0.039,0.053-0.053h377.908c0.013,0.014,0.039,0.027,0.053,0.053
		v26.947h-324c-14.851,0-27,12.149-27,27l0,0L66,119z M471,442.947c-0.014,0.014-0.026,0.039-0.053,0.053H93.04
		c-0.013-0.014-0.04-0.026-0.053-0.053V119.039c0.013-0.013,0.026-0.039,0.053-0.053h377.908c0.014,0.014,0.039,0.027,0.053,0.053
		V442.947z"/>
	<path fill="#67768A" d="M417,186.5c0,22.373-18.127,40.5-40.5,40.5S336,208.873,336,186.5s18.127-40.5,40.5-40.5
		S417,164.127,417,186.5z"/>
	<path fill="#67768A" d="M444,416H120v-54l94.5-162l108,135h27l94.5-81V416z"/>
</g>
</svg>
