<?xml version="1.0" encoding="utf-8"?>
<svg version="1.1" id="Layer_1" xmlns="http://www.w3.org/2000/svg" xmlns:xlink="http://www.w3.org/1999/xlink" x="0px" y="0px"
	 viewBox="0 0 512 512" style="enable-background:new 0 0 512 512;" xml:space="preserve">
<style type="text/css">
	.st0{fill:#67768A;}
</style>
<g>
	<path class="st0" d="M222.2,63h-21.7l-14.4,55.5L171.6,63h-24.1c4.8,14.5,9.6,26.6,14.5,41c7.2,19.3,12.1,36.2,12.1,45.8v57.9h21.7
		v-57.9L222.2,63z M280.1,171.6v-36.2c0-12.1-2.4-19.3-7.2-26.5s-12.1-9.6-21.7-9.6c-9.6,0-16.9,4.8-21.7,12
		c-4.8,4.8-7.2,12.1-7.2,24.1V174c0,12.1,2.4,19.3,7.2,24.1c4.8,7.2,12.1,9.6,21.7,9.6c9.6,0,16.9-4.8,21.7-12.1
		C277.7,193.3,280.1,183.6,280.1,171.6L280.1,171.6z M260.8,176.4c0,9.6-2.4,14.5-9.6,14.5c-7.2,0-9.6-4.8-9.6-14.5v-45.8
		c0-9.6,2.4-14.5,9.6-14.5c7.2,0,9.6,4.8,9.6,14.5V176.4z M352.5,207.8V99.2h-19.3v82c-4.8,7.2-7.2,9.7-12.1,9.7
		c-2.6-0.2-4.6-2.2-4.8-4.8V99.2H297v84.4c0,7.2,0,12.1,2.4,16.9c0,4.8,4.8,7.2,12.1,7.2s14.5-4.8,21.7-12.1v12.1L352.5,207.8z"/>
	<path class="st0" d="M362.2,316.3c-7.2,0-9.7,4.8-9.7,14.5v9.6h19.3v-9.6C371.8,321.1,369.4,316.3,362.2,316.3z"/>
	<path class="st0" d="M292.2,316.3c-2.4,0-7.2,2.4-9.7,4.8v65.1c2.4,2.4,7.2,4.8,9.7,4.8c4.8,0,7.2-4.8,7.2-14.5v-45.8
		C299.5,321.1,297,316.3,292.2,316.3z"/>
	<path class="st0" d="M410.4,263.2c-4.8-16.9-19.3-31.4-33.8-31.4C338,227,297,227,256,227s-79.6,0-120.6,4.8
		c-14.5,0-29,14.5-33.8,31.4c-4.8,24.1-4.8,50.7-4.8,74.8s0,50.7,4.8,74.8c4.8,16.9,16.9,29,33.8,31.4c41,4.8,79.6,4.8,120.6,4.8
		s79.6,0,120.6-4.8c16.9-2.4,31.4-14.5,33.8-31.4c4.8-24.1,4.8-50.7,4.8-74.8S415.2,287.4,410.4,263.2z M188.5,285h-24.1v123h-21.7
		V285h-21.8v-21.7h67.6V285z M246.4,408h-19.3v-12.1c-7.2,9.6-14.5,12.1-21.7,12.1s-9.6-2.4-12.1-7.2c0-2.4-2.4-7.2-2.4-16.9v-84.4
		h19.3v84.4c0.2,2.6,2.2,4.6,4.8,4.8c4.8,0,7.2-2.4,12.1-9.6v-79.6h19.3L246.4,408z M318.7,374.2c0,9.7,0,16.9-2.4,21.7
		c-2.4,7.2-7.2,12.1-14.5,12.1s-14.5-4.8-19.3-12.1v9.7h-19.3V263.2h19.3v45.8c7.2-7.2,12.1-12.1,19.3-12.1s12.1,4.8,14.5,12.1
		c2.4,4.8,2.4,12.1,2.4,21.7V374.2z M391.1,357.3h-38.6v19.3c0,9.6,2.4,14.5,9.7,14.5c4.8,0,7.2-2.4,9.6-7.2v-12.1h19.3v14.5
		c0,4.8-2.4,7.2-4.8,12.1c-4.8,7.2-12.1,12.1-24.1,12.1c-9.7,0-16.9-4.8-24.1-12.1c-4.8-4.8-7.2-14.5-7.2-24.1V338
		c0-12.1,2.4-19.3,4.8-24.1c4.8-7.2,12.1-12.1,24.1-12.1c9.7,0,16.9,4.8,21.7,12.1c4.8,4.9,4.8,14.5,4.8,24.1v19.3H391.1z"/>
</g>
</svg>
