<?xml version="1.0" encoding="utf-8"?>
<svg version="1.1" id="Layer_1" xmlns="http://www.w3.org/2000/svg" xmlns:xlink="http://www.w3.org/1999/xlink" x="0px" y="0px"
	 viewBox="0 0 512 512" style="enable-background:new 0 0 512 512;" xml:space="preserve">
<style type="text/css">
	.st0{fill:#67768A;}
</style>
<g transform="translate(1 1)">
	<g>
		<g>
			<path class="st0" d="M475,160c0-1.5-4.5-34.4-18.7-50.1c-17.2-18.7-35.9-20.9-45.6-21.7h-3C347.1,83.7,256.6,83,255.1,83
				c-0.7,0-92,0.7-151.8,6.7h-2.2c-10.5,0.7-29.2,3-45.6,21.7c-15,15.7-19.4,49.4-19.4,50.9c0,0-4.5,38.1-4.5,76.3v35.1
				c0,37.4,4.5,75.5,4.5,76.3c0,1.5,4.5,34.4,18.7,50.1c15.7,17.9,34.4,20.2,46.4,21.7c2.2,0,3.7,0,6,0.7
				c34.4,3,143.6,4.5,148.1,4.5c0.7,0,92,0,152.6-6.7h2.2c10.5-0.7,29.2-3,45.6-21.7c15-15.7,19.4-49.4,19.4-50.9
				c0,0,4.5-38.1,4.5-76.3v-35.1C479.5,198.9,475,160.8,475,160z M464.5,272.9c0,37.4-4.5,74.8-4.5,74.8c-1.5,8.2-6,32.2-15.7,42.6
				c-12.7,15-27.7,16.5-35.9,17.2h-2.2c-59.8,4.5-150.3,4.5-151.1,4.5s-112.9-1.5-145.8-5.2c-2.2,0-4.5-0.7-6.7-0.7
				c-10.5-0.7-25.4-3-37.4-16.5c-9-9.7-14.2-33.7-15-41.9c0-0.7-4.5-38.1-4.5-74.8v-35.1c0-37.4,4.5-74.8,4.5-74.8
				c0.7-8.2,6-32.2,15-42.6c13.5-15,27.7-16.5,36.6-17.2h2.2c59.8-4.5,150.3-5.2,151.1-5.2s91.2,0.7,151.1,5.2h3
				c8.2,0.7,23.2,2.2,35.9,17.2c9,10.5,13.5,34.4,15,42.6c0.7,1.5,4.5,38.9,4.5,74.8L464.5,272.9L464.5,272.9z"/>
			<path class="st0" d="M348.6,255.7l-142.1-83c-2.2-1.5-5.2-1.5-7.5,0c-2.2,1.5-3.7,3.7-3.7,6.7v162.3c0,3,1.5,5.2,3.7,6.7
				c1.5,0.7,2.2,0.7,3.7,0.7s2.2,0,3.7-0.7l142.1-79.3c2.2-1.5,3.7-3.7,3.7-6.7C352.3,259.5,350.8,257.2,348.6,255.7z M210.3,329
				V192.2l119.7,70.3L210.3,329z"/>
		</g>
	</g>
</g>
</svg>
