<?xml version="1.0" encoding="utf-8"?>
<svg version="1.1" id="Layer_1" xmlns="http://www.w3.org/2000/svg" xmlns:xlink="http://www.w3.org/1999/xlink" x="0px" y="0px"
	 viewBox="0 0 512 512" style="enable-background:new 0 0 512 512;" xml:space="preserve">
<style type="text/css">
	.st0{fill:#67768A;}
</style>
<g>
	<g>
		<path class="st0" d="M256,44.3C139.1,44.3,44.3,139.1,44.3,256S139.1,467.7,256,467.7S467.7,372.9,467.7,256
			C467.6,139.1,372.9,44.4,256,44.3z M203.7,65.7c-21,19.8-36.9,44.3-46.3,71.5c-15.8-3.8-31.2-8.9-46.2-15.1
			C136.1,95,168.2,75.5,203.7,65.7z M101.5,133.2c16.5,7.5,33.6,13.5,51.2,18.1c-9.9,31.6-15.2,64.4-15.7,97.5v-0.3h-78
			C60.4,206.6,75.3,166.1,101.5,133.2z M101.5,378c-26.2-32.9-41.1-73.3-42.5-115.3l78,0.2c0.4,33.2,5.7,66.2,15.7,97.8
			C135.1,365,118,370.8,101.5,378z M111.2,389.8v-0.6c15-6.2,30.4-11.3,46.2-15.1c9.4,27.5,25.3,52.3,46.3,72.2
			C168.2,436.5,136.1,416.9,111.2,389.8z M248.9,452.8c-32-4.1-59.9-35.1-77.7-81.2c25.6-5.2,51.6-7.9,77.7-8.3V452.8z M248.9,348.5
			c-27.7,0.4-55.3,3.3-82.5,8.9c-9.5-30.5-14.6-62.3-15-94.3v-0.3h97.5V348.5z M248.9,248.6h-97.5c0.4-32.3,5.4-64.3,15-95.2
			c27.1,5.8,54.8,9,82.5,9.5V248.6z M248.9,148.7c-26.1-0.3-52.1-3.1-77.7-8.2c17.8-46.2,45.8-77.2,77.7-81.3V148.7z M410.5,133.8
			c26.2,32.9,41.1,73.3,42.5,115.3h-78c-0.4-33.3-5.7-66.3-15.7-98C376.9,146.8,394,141,410.5,133.8z M400.7,122.2
			c-15,6.2-30.4,11.3-46.2,15.1c-9.4-27.3-25.3-51.8-46.2-71.7C343.8,75.5,375.8,95.1,400.7,122.2z M263.1,59.2
			c32,4.1,59.9,35.1,77.7,81.2c-25.6,5.2-51.6,7.9-77.7,8.3V59.2z M263.1,162.9c27.7-0.4,55.3-3.3,82.5-8.9
			c9.6,30.8,14.7,62.9,15,95.2h-97.5V162.9z M263.1,263.4h97.5c-0.4,32.3-5.4,64.3-15,95.2c-27.1-5.8-54.8-9-82.5-9.5V263.4z
			 M263.1,452.8v-89.4c26.1,0.3,52.1,3.1,77.7,8.2C323.1,417.8,295.1,448.7,263.1,452.8z M308.3,446.3c21-19.8,36.9-44.3,46.3-71.6
			c15.8,3.8,31.2,8.9,46.2,15.1C375.9,417,343.8,436.5,308.3,446.3z M410.5,378.8c-16.5-7.5-33.6-13.5-51.2-18.1
			c9.9-31.6,15.2-64.4,15.7-97.5v0.3h78C451.6,305.4,436.7,345.9,410.5,378.8z"/>
	</g>
</g>
</svg>
